<svg xmlns="http://www.w3.org/2000/svg" width="26" height="26" viewBox="0 0 26 26"><defs><style>.a{fill:#ee3c30;}</style></defs><g transform="translate(-243 -243.001)"><path class="a" d="M245.255,243.54H262.7l1.43.477,1.622,1.754.494.443H260.18l-9.664,9.451-6.177-.229-.8-1.029v-9.78l.915-1.087Z"/><path d="M268.509,246.952l.342-.342a.508.508,0,0,0-.718-.718l-.342.342-.343-.342a.508.508,0,0,0-.359-.149h-.558l-2.594-2.594a.507.507,0,0,0-.359-.148H244.829A1.83,1.83,0,0,0,243,244.829v9.517a1.83,1.83,0,0,0,1.829,1.828h4.424l-2.975,2.976a1.828,1.828,0,0,0,0,2.586l6.729,6.729a1.828,1.828,0,0,0,2.586,0l5.04-5.04a.508.508,0,0,0-.718-.718l-5.04,5.04a.814.814,0,0,1-1.15,0L247,261.018a.814.814,0,0,1,0-1.15l13.109-13.109h6.774l.193.193-1.174,1.174a1.523,1.523,0,1,0,.867,1.375,1.5,1.5,0,0,0-.149-.656l1.175-1.175.193.194v6.774l-4.838,4.837a.508.508,0,0,0,.719.719l4.986-4.987a.508.508,0,0,0,.149-.359v-7.2a.51.51,0,0,0-.149-.359Zm-16.39,5.16a.508.508,0,1,1,.508-.508A.509.509,0,0,1,252.119,252.112Zm7.776-6.369a.508.508,0,0,0-.359.149l-5.906,5.9a1.53,1.53,0,1,0-1.318,1.318l-2.044,2.044h-5.439a.814.814,0,0,1-.813-.813v-9.517a.814.814,0,0,1,.813-.813h18.539l1.727,1.727Zm5.347,4.266a.508.508,0,0,1,0-1.016.5.5,0,0,1,.308.105.425.425,0,0,0,.044.051.539.539,0,0,0,.051.044.507.507,0,0,1-.4.816Z"/><path d="M251.7,246.279a.508.508,0,0,0-.692.192l-3.276,5.8a.509.509,0,0,0,.193.692.5.5,0,0,0,.249.066.509.509,0,0,0,.443-.259l3.275-5.8A.508.508,0,0,0,251.7,246.279Z"/><path d="M249.356,247.571a1.523,1.523,0,1,0-1.523,1.523A1.525,1.525,0,0,0,249.356,247.571Zm-2.031,0a.508.508,0,1,1,.508.508A.509.509,0,0,1,247.325,247.571Z"/><path d="M261.89,260.942a.509.509,0,1,0,.359.149A.512.512,0,0,0,261.89,260.942Z"/><path d="M258.025,261.676a.559.559,0,0,1-.925-.285l-1.671-7.276a.559.559,0,1,1,1.089-.25l1.671,7.276A.559.559,0,0,1,258.025,261.676Z"/><path d="M253.371,257.127a.551.551,0,1,1-.028.779.552.552,0,0,1,.028-.779m-.657-.706a1.516,1.516,0,1,0,2.143.077,1.515,1.515,0,0,0-2.143-.077Z"/><path d="M259.8,257.354a.551.551,0,1,1-.028.779.552.552,0,0,1,.028-.779m-.658-.706a1.516,1.516,0,1,0,2.143.077,1.516,1.516,0,0,0-2.143-.077Z"/></g></svg>