<svg xmlns="http://www.w3.org/2000/svg" width="34.988" height="26" viewBox="0 0 34.988 26"><defs><style>.a{fill:#813781;}</style></defs><g transform="translate(-238.506 -243)"><rect class="a" width="33.179" height="2.508" transform="translate(239.531 258.888)"/><path d="M256.481,256.433l1.048.4a.513.513,0,1,0,.366-.958l-1.049-.4a.513.513,0,0,0-.365.958Z"/><path d="M271.625,258.243h-.279a3.416,3.416,0,0,0,1.172-1.186,2.358,2.358,0,0,0-.8-3.06,5,5,0,0,0-8.186-5.377l-2.368-3.394a.513.513,0,0,0-.755-.1,6.4,6.4,0,0,0-1.541,1.981,3.34,3.34,0,0,0-1.408.522,8.717,8.717,0,0,0-.793-2.954.513.513,0,1,0-.91.473,9.16,9.16,0,0,1,.741,3.477.513.513,0,0,0,.876.358,3.929,3.929,0,0,1,1.046-.71,6.56,6.56,0,0,0-.16.739,6.428,6.428,0,0,0,.493,3.616l-4.6,2.058c-1.045-1.81-2.129-2.665-3.226-2.542a2.234,2.234,0,0,0-.761.214c-.825-1.316-1.148-2.341-.863-2.772.107-.161.432-.653,1.416-.431a3.909,3.909,0,0,1,1.081.443.513.513,0,0,0,.777-.541,10.086,10.086,0,0,1-.19-1.489.332.332,0,0,0,0-.044,4.859,4.859,0,0,1,.536-2.875,1.455,1.455,0,0,1,1.085-.617,1.726,1.726,0,0,1,.413,0,.513.513,0,0,0,.13-1.017,2.755,2.755,0,0,0-.655,0,2.466,2.466,0,0,0-1.806,1.038,4.609,4.609,0,0,0-.726,2.445,5,5,0,0,0-6.9,6.928,3.305,3.305,0,0,0,.01.832,5.711,5.711,0,0,0-3.717-.049,2.224,2.224,0,0,0-1.21,1.439,2.36,2.36,0,0,0,.88,2.592h-.053a1.872,1.872,0,0,0-1.87,1.87v.11a1.871,1.871,0,0,0,1.87,1.869h1.695l4.11,4.006a1.744,1.744,0,0,0-.481,1.2v.014A1.7,1.7,0,0,0,247.452,269h17.1a1.7,1.7,0,0,0,1.752-1.684V267.3a1.744,1.744,0,0,0-.481-1.2l4.11-4.006h1.7a1.871,1.871,0,0,0,1.869-1.869v-.11a1.871,1.871,0,0,0-1.869-1.87Zm-.006-1.677a4.527,4.527,0,0,1-2.685,1.62.5.5,0,0,0-.126.057H259.28a6.369,6.369,0,0,0,.913-5,1.347,1.347,0,0,1,1-.429c.5.056.608.255.643.32.216.409-.081,1.239-.258,1.576a.512.512,0,0,0,.853.56,11.111,11.111,0,0,1,3.03-2.728.548.548,0,0,0,.111-.05.854.854,0,0,1,.642-.071c.254.11.587.342.555,1.094a3.4,3.4,0,0,1-.212.985.512.512,0,0,0,.669.669c.69-.285,2.718-.909,3.812-.386a1.326,1.326,0,0,1,.582,1.778Zm-15.7,1.31-.459-1.025a.513.513,0,0,0-.936.419l.436.973h-1.614l.187-.492a.512.512,0,1,0-.957-.366l-.328.858h-2.384c-.008-.011-.211-.257-.3-.375l9.641-4.315a5.448,5.448,0,0,1-1.128,4.585.53.53,0,0,0-.067.105H255.94a.508.508,0,0,0-.019-.367Zm9.393-6.707a2.016,2.016,0,1,1,3.023,2.557.5.5,0,0,0-.053.05c-.186.043-.362.09-.522.136a2.123,2.123,0,0,0-1.143-2.427,1.641,1.641,0,0,0-1.115-.043Zm1.757-2.989a3.981,3.981,0,0,1,3.976,3.977,3.92,3.92,0,0,1-.285,1.478,4.522,4.522,0,0,0-1-.067,3.042,3.042,0,0,0-5.079-3.3l-.552-.791a3.966,3.966,0,0,1,2.937-1.3Zm-6.4-1.877,3.888,5.574a8.726,8.726,0,0,0-1.236.96c-.14.128-.276.257-.406.385a1.687,1.687,0,0,0-.174-.56,1.713,1.713,0,0,0-1.436-.862,2.178,2.178,0,0,0-1.572.5,5.4,5.4,0,0,1,.936-6Zm-11.227,6.822a1.716,1.716,0,0,0-.121.446c-.13-.128-.266-.257-.407-.385a6.625,6.625,0,0,0-1.889-1.3l-.016-.025a2.016,2.016,0,0,1,1.654-3.169l.052,0a2.27,2.27,0,0,0-.263.329c-.571.863-.246,2.2.99,4.1Zm-4.756-2.414a3.977,3.977,0,0,1,6.7-2.9c.012.172.028.336.044.486a3.573,3.573,0,0,0-1.234-.212,3.041,3.041,0,0,0-4.38,3.685,1.471,1.471,0,0,0-.193.067,1.945,1.945,0,0,0-.622.418,3.979,3.979,0,0,1-.31-1.541Zm-2.322,7.494c-1.478-.617-2.1-1.379-1.833-2.264a1.217,1.217,0,0,1,.668-.8c1.089-.523,3.122.1,3.812.385a.513.513,0,0,0,.67-.668,3.423,3.423,0,0,1-.212-.986c-.032-.752.3-.984.555-1.094.731-.315,2.666,1.452,3.782,2.849a.513.513,0,0,0,.854-.559c-.178-.338-.474-1.168-.258-1.576.035-.066.14-.264.643-.321.616-.07,1.4.634,2.171,1.944l-4.613,2.065a.509.509,0,0,0-.278.309.515.515,0,0,0,.043.415c.068.116.14.23.215.342h-6.147a.618.618,0,0,0-.072-.038Zm22.911,9.111a.675.675,0,0,1-.727.659h-17.1a.674.674,0,0,1-.726-.659V267.3a.727.727,0,0,1,.726-.727h17.1a.728.728,0,0,1,.727.727Zm7.193-7.093a.845.845,0,0,1-.844.844H248.311a.513.513,0,0,0,0,1.025h20.15l-3.548,3.458H247.087l-3.548-3.458h2.722a.513.513,0,1,0,0-1.025h-5.885a.846.846,0,0,1-.845-.844v-.11a.846.846,0,0,1,.845-.845h31.249a.845.845,0,0,1,.844.845Z"/><path d="M260.932,250.89h.02l.965-.038a.512.512,0,0,0-.04-1.024l-.965.037a.513.513,0,0,0,.02,1.025Z"/></g></svg>