<svg xmlns="http://www.w3.org/2000/svg" width="21.759" height="26" viewBox="0 0 21.759 26"><defs><style>.a{fill:#813781;}</style></defs><g transform="translate(-245.12 -242.999)"><ellipse class="a" cx="7.206" cy="7.029" rx="7.206" ry="7.029" transform="translate(246.804 248.127)"/><path d="M260.745,255.17a6.786,6.786,0,1,0-6.765,6.258A6.534,6.534,0,0,0,260.745,255.17Zm-12.769,0a6.027,6.027,0,1,1,6,5.5,5.774,5.774,0,0,1-6-5.5Z"/><path d="M254.856,258.286a3.849,3.849,0,0,0,.636.054,3.345,3.345,0,0,0,2.165-.769,3.982,3.982,0,0,0,1.56-3.1,2.834,2.834,0,0,0-1.29-2.24c-1.349-.955-2.42-.017-3.28.736a3.025,3.025,0,0,1-1.54.932,2.106,2.106,0,0,1-1.269-.333,2.246,2.246,0,0,0-2.089-.2l-.011.005a1.405,1.405,0,0,0-1,1.555,2.449,2.449,0,0,0,1.024,2.032,3.825,3.825,0,0,0,2.236.652,4.541,4.541,0,0,0,1.071-.126,3.841,3.841,0,0,0,1.785.8Zm-1.71-3.627a3.547,3.547,0,0,0,2-1.12c.918-.8,1.521-1.266,2.339-.688a2.077,2.077,0,0,1,.969,1.649,3.267,3.267,0,0,1-1.286,2.486,2.675,2.675,0,0,1-2.188.549,2.892,2.892,0,0,1-2-1.279l-.1-.171a16.131,16.131,0,0,0-1.131-1.706,2.7,2.7,0,0,0,1.395.28Zm-2.933,1.687a1.69,1.69,0,0,1-.711-1.424c-.007-.674.3-.781.458-.819.767-.1,1.5,1.1,2.271,2.377l.1.172c.037.06.076.118.116.176A3.3,3.3,0,0,1,250.213,256.346Z"/><path d="M266.877,264.112a3.557,3.557,0,0,0-1.621-2.81,2.28,2.28,0,0,0-2.3-.322,3.478,3.478,0,0,0-.53.27,93.852,93.852,0,0,0-.217-14.881,5.037,5.037,0,0,0,.6-1.534,1.053,1.053,0,0,0-.5-1.157,1.036,1.036,0,0,0-1.234.118.873.873,0,0,1-.641.259,1.05,1.05,0,0,1-.81-.419,1.733,1.733,0,0,0-2.685,0,.991.991,0,0,1-1.619,0,1.734,1.734,0,0,0-2.686,0,.991.991,0,0,1-1.618,0,1.734,1.734,0,0,0-2.686,0,1.046,1.046,0,0,1-.809.419.873.873,0,0,1-.641-.259,1.036,1.036,0,0,0-1.234-.118,1.053,1.053,0,0,0-.5,1.156,5.037,5.037,0,0,0,.6,1.534c-.08.845-.149,1.694-.2,2.528a.381.381,0,1,0,.76.05c.052-.785.116-1.584.191-2.381a62.546,62.546,0,0,1,14.966,0,93.027,93.027,0,0,1,.159,15.278c-.159.132-.315.268-.469.4l-.106.093a.381.381,0,1,0,.5.574l.107-.094c1.227-1.074,2.036-1.692,3.161-.895a2.782,2.782,0,0,1,1.3,2.217,4.333,4.333,0,0,1-1.7,3.305,3.568,3.568,0,0,1-2.92.734,3.844,3.844,0,0,1-2.656-1.7l-.136-.223a15.109,15.109,0,0,0-1.855-2.647l.184.1a3.584,3.584,0,0,0,2.1.536,2.557,2.557,0,0,0,1.139-.361.381.381,0,0,0-.375-.663,1.831,1.831,0,0,1-.8.263,2.812,2.812,0,0,1-1.7-.443,2.777,2.777,0,0,0-2.613-.245l-.015.007a1.617,1.617,0,0,0-1.181,1.427,62.689,62.689,0,0,1-7.089-.45,93.036,93.036,0,0,1-.28-13.329.381.381,0,0,0-.76-.04,93.62,93.62,0,0,0,.3,13.61,5.008,5.008,0,0,0-.607,1.541,1.055,1.055,0,0,0,.5,1.157,1.035,1.035,0,0,0,1.234-.119.876.876,0,0,1,.641-.258,1.05,1.05,0,0,1,.81.419,1.735,1.735,0,0,0,2.685,0,.992.992,0,0,1,1.619,0,1.769,1.769,0,0,0,1.343.637,1.614,1.614,0,0,0,.795-.2l.057.044a4.836,4.836,0,0,0,2.823.821,5.724,5.724,0,0,0,1.415-.173,4.894,4.894,0,0,0,3.1,1.111,4.219,4.219,0,0,0,2.729-.967,5.035,5.035,0,0,0,1.977-3.92Zm-20.564-18.291a4.552,4.552,0,0,1-.422-1.154.3.3,0,0,1,.145-.333.278.278,0,0,1,.341.031,1.629,1.629,0,0,0,1.146.451,1.772,1.772,0,0,0,1.343-.636.991.991,0,0,1,1.618,0,1.736,1.736,0,0,0,2.686,0,.991.991,0,0,1,1.619,0,1.735,1.735,0,0,0,2.685,0,.991.991,0,0,1,1.619,0,1.772,1.772,0,0,0,1.343.636,1.636,1.636,0,0,0,1.147-.45.277.277,0,0,1,.341-.032.3.3,0,0,1,.144.333,4.505,4.505,0,0,1-.421,1.154A63.338,63.338,0,0,0,246.313,245.821Zm6.857,20.391a1.733,1.733,0,0,0-2.685,0,.993.993,0,0,1-1.619,0,1.769,1.769,0,0,0-1.343-.637,1.629,1.629,0,0,0-1.146.451.281.281,0,0,1-.342.032.3.3,0,0,1-.144-.333,4.437,4.437,0,0,1,.449-1.2,63.526,63.526,0,0,0,7.229.464,3.063,3.063,0,0,0,.613,1.624,1.021,1.021,0,0,1-.2.019,1.05,1.05,0,0,1-.81-.418Zm2.11.412a2.291,2.291,0,0,1-.964-1.93c-.01-.882.378-1.094.685-1.17,1.065-.145,2.029,1.442,3.049,3.123l.136.224a3.871,3.871,0,0,0,.256.37,4.458,4.458,0,0,1-3.162-.617Z"/><path d="M264.6,265.645l-.019.011a.381.381,0,0,0,.385.657l.019-.011a.381.381,0,0,0-.385-.657Z"/><path d="M265.313,265.483a.386.386,0,0,0,.193-.052l.018-.011a.381.381,0,1,0-.385-.657l-.019.011a.381.381,0,0,0,.193.709Z"/><path d="M264.073,264.749l-.019.011a.381.381,0,0,0,.193.71.373.373,0,0,0,.192-.053l.019-.011a.381.381,0,0,0-.385-.657Z"/></g></svg>