<svg xmlns="http://www.w3.org/2000/svg" width="26" height="26.001" viewBox="0 0 26 26.001"><defs><style>.a{fill:#ee3c30;}</style></defs><g transform="translate(-172 -93)"><circle class="a" cx="5.5" cy="5.5" r="5.5" transform="translate(187 93)"/><g transform="translate(172 93.945)"><path d="M20.448,0a4.613,4.613,0,0,0-4.58,4.118h-3.2a.489.489,0,1,0,0,.979h6.6L16.394,7.97a2.142,2.142,0,0,1-1.934-.024,3.094,3.094,0,0,0-3,0,2.134,2.134,0,0,1-1.978,0A3.05,3.05,0,0,0,7.5,7.591L5.672,5.1h2.6a.489.489,0,0,0,0-.979H4.954L2.323.533a.489.489,0,1,0-.789.579L3.74,4.118H.49a.489.489,0,0,0-.346.835L3.9,8.707l.015.015,3.151,3.152.987,2.313A1.392,1.392,0,0,0,9.506,15.2h.473v5.735L5.7,24.177a.489.489,0,0,0,.3.879h8.935a.489.489,0,0,0,.3-.879l-4.273-3.245V15.2h.473a1.392,1.392,0,0,0,1.457-1.009l.987-2.313,3.151-3.152.015-.015.513-.513A4.608,4.608,0,1,0,20.448,0ZM4.543,7.97,1.671,5.1H4.458l2.069,2.82-.051.03a2.142,2.142,0,0,1-1.933.024Zm8.939,16.107H7.455l3.014-2.288ZM11.988,13.8c-.16.376-.212.414-.557.414H9.506c-.345,0-.4-.039-.557-.414l-.733-1.719h4.505Zm1.271-2.7H7.678L5.732,9.159a2.8,2.8,0,0,0,1.258-.38,2.131,2.131,0,0,1,1.977,0,3.1,3.1,0,0,0,3,0,2.131,2.131,0,0,1,1.977,0,2.806,2.806,0,0,0,1.258.38Zm3.594-6.988a3.609,3.609,0,0,1,.709-1.705l1.7,1.705ZM19.959,8.2A3.586,3.586,0,0,1,18.251,7.5l1.707-1.708Zm0-4.778-1.7-1.7a3.609,3.609,0,0,1,1.7-.708Zm4.085.692H21.629l1.706-1.706A3.611,3.611,0,0,1,24.044,4.118Zm-3.106-3.1a3.611,3.611,0,0,1,1.705.707L20.937,3.425Zm0,7.19V5.788l1.705,1.705A3.612,3.612,0,0,1,20.937,8.2Zm2.4-1.4L21.629,5.1h2.414A3.611,3.611,0,0,1,23.335,6.8Z" transform="translate(0)"/><path d="M204.411,85.119h0a.489.489,0,1,0-.492-.489A.488.488,0,0,0,204.414,85.119Z" transform="translate(-193.943 -80.022)"/></g></g></svg>