<svg xmlns="http://www.w3.org/2000/svg" width="29.543" height="26" viewBox="0 0 29.543 26"><defs><style>.a{fill:#f16036;}</style></defs><g transform="translate(-241.23 -243)"><path class="a" d="M250.311,258.762h9.765l1.126-.8.489-1.582v-6.4l7.066.188,1.173.751.375.985v11.5l-.188.892-.516.751-1.361.328h-2.248l-.474.516.047,1.549v.516l-.235.563h-.469l-1.647-1.736-1.524-1.361-2.273.047-7.719-.094-.915-.7-.474-.892Z"/><path d="M268.428,249.691H262.17v-4.346A2.348,2.348,0,0,0,259.825,243H243.574a2.347,2.347,0,0,0-2.344,2.345v6.444a.433.433,0,1,0,.865,0v-6.444a1.481,1.481,0,0,1,1.479-1.479h16.251a1.48,1.48,0,0,1,1.479,1.479v11.471a1.481,1.481,0,0,1-1.479,1.479h-9.361a.907.907,0,0,0-.644.266l-2.868,2.868a.038.038,0,0,1-.049.01.039.039,0,0,1-.028-.042V259.2a.912.912,0,0,0-.911-.91h-2.39a1.481,1.481,0,0,1-1.479-1.479v-3.3a.433.433,0,1,0-.865,0v3.3a2.347,2.347,0,0,0,2.344,2.344h2.39a.045.045,0,0,1,.045.045V261.4a.911.911,0,0,0,1.555.644l2.269-2.269v3.735a2.348,2.348,0,0,0,2.345,2.345h5.241a.433.433,0,0,0,0-.866h-5.241a1.48,1.48,0,0,1-1.479-1.479V259.16h9.126a2.347,2.347,0,0,0,2.345-2.344v-6.259h6.258a1.48,1.48,0,0,1,1.479,1.479v11.471a1.48,1.48,0,0,1-1.479,1.479h-2.389a.912.912,0,0,0-.911.911v2.192a.045.045,0,0,1-.077.032l-2.868-2.868a.906.906,0,0,0-.644-.267H259.15a.433.433,0,0,0,0,.866h2.389a.046.046,0,0,1,.032.013l2.868,2.868a.911.911,0,0,0,1.555-.644V265.9a.045.045,0,0,1,.045-.045h2.39a2.347,2.347,0,0,0,2.344-2.345V252.036a2.348,2.348,0,0,0-2.345-2.345Z"/><path d="M254.613,261.6A1.389,1.389,0,1,0,256,260.207,1.39,1.39,0,0,0,254.613,261.6Zm1.912,0a.523.523,0,1,1-.524-.523A.524.524,0,0,1,256.525,261.6Z"/><path d="M250.311,255.86a1.388,1.388,0,1,0,1.389-1.389,1.39,1.39,0,0,0-1.389,1.389Zm1.912,0a.523.523,0,1,1-.523-.523.524.524,0,0,1,.523.523Z"/><path d="M253.088,251.207a3.3,3.3,0,1,0-4.689-2.995,1.389,1.389,0,0,0,2.778,0,.509.509,0,0,1,.166-.382.523.523,0,0,1,.4-.139.533.533,0,0,1,.481.482.525.525,0,0,1-.323.524,2.562,2.562,0,0,0-1.587,2.383v.956a1.388,1.388,0,1,0,2.777,0v-.829Zm-.464-.741a.657.657,0,0,0-.4.614v.956a.523.523,0,1,1-1.046,0v-.956a1.7,1.7,0,0,1,1.05-1.582,1.391,1.391,0,0,0,.858-1.385,1.407,1.407,0,0,0-1.286-1.286q-.049,0-.1,0a1.389,1.389,0,0,0-1.389,1.388.523.523,0,1,1-1.046,0,2.435,2.435,0,1,1,3.359,2.254Z"/><path d="M265.993,261.6a1.389,1.389,0,1,0-1.388,1.389A1.39,1.39,0,0,0,265.993,261.6Zm-1.911,0a.523.523,0,1,1,.523.523A.523.523,0,0,1,264.082,261.6Z"/><path d="M260.3,262.984a1.389,1.389,0,1,0-1.389-1.389A1.39,1.39,0,0,0,260.3,262.984Zm0-1.912a.523.523,0,1,1-.523.523A.523.523,0,0,1,260.3,261.072Z"/></g></svg>