<svg xmlns="http://www.w3.org/2000/svg" width="16.147" height="16.176" viewBox="0 0 16.147 16.176"><defs><style>.a{fill:none;stroke:#919191;stroke-linecap:round;stroke-linejoin:round;stroke-width:1.1px;}</style></defs><path class="a" d="M12.452,4.37A3.588,3.588,0,0,1,15.286,7.2M12.452,1.5a6.458,6.458,0,0,1,5.7,5.7m-.718,5.726v2.153a1.435,1.435,0,0,1-1.564,1.435,14.2,14.2,0,0,1-6.192-2.2A13.992,13.992,0,0,1,5.377,10a14.2,14.2,0,0,1-2.2-6.221A1.435,1.435,0,0,1,4.6,2.218H6.754A1.435,1.435,0,0,1,8.189,3.452a9.213,9.213,0,0,0,.5,2.016,1.435,1.435,0,0,1-.323,1.514l-.911.911A11.481,11.481,0,0,0,11.763,12.2l.911-.911a1.435,1.435,0,0,1,1.514-.323,9.213,9.213,0,0,0,2.016.5A1.435,1.435,0,0,1,17.439,12.923Z" transform="translate(-2.617 -0.893)"/></svg>